<svg width="20" height="18" viewBox="0 0 20 18" fill="none" xmlns="http://www.w3.org/2000/svg">
<path d="M17 16H14C13.4477 16 13 16.4477 13 17C13 17.5523 13.4477 18 14 18H17C18.1046 18 19 17.1046 19 16V2C19 0.895431 18.1046 0 17 0H14C13.4477 0 13 0.447715 13 1C13 1.55228 13.4477 2 14 2H17V16Z" fill="#B6B7C4"/>
<path d="M9.5 10H1C0.447715 10 0 9.55228 0 9C0 8.44772 0.447715 8 1 8H9.5L6.70711 5.20711C6.31658 4.81658 6.31658 4.18342 6.70711 3.79289L6.79289 3.70711C7.18342 3.31658 7.81658 3.31658 8.20711 3.70711L12.7929 8.29289C13.1834 8.68342 13.1834 9.31658 12.7929 9.70711L8.20711 14.2929C7.81658 14.6834 7.18342 14.6834 6.79289 14.2929L6.70711 14.2071C6.31658 13.8166 6.31658 13.1834 6.70711 12.7929L9.5 10Z" fill="#B6B7C4"/>
</svg>
